<svg xmlns="http://www.w3.org/2000/svg" viewBox="0 0 419.71 419.76"><defs><style>.cls-1{font-size:92px;stroke-miterlimit:10;stroke-width:0.75px;font-family:Poppins-Regular, Poppins;}.cls-1,.cls-2{fill:#231f20;stroke:#231f20;}.cls-2{stroke-linecap:round;stroke-linejoin:round;stroke-width:9px;}</style></defs><g id="Layer_2" data-name="Layer 2"><g id="Layer_1-2" data-name="Layer 1"><text class="cls-1" transform="matrix(0.82, -0.57, 0.57, 0.82, 105.21, 122.77)">G</text><text class="cls-1" transform="matrix(0.98, -0.2, 0.2, 0.98, 159.77, 86.09)">E</text><text class="cls-1" transform="matrix(0.99, 0.12, -0.12, 0.99, 201.3, 76.43)">T</text><text class="cls-1" transform="translate(246.67 83.1) rotate(21.53)"> </text><text class="cls-1" transform="translate(266.99 88.92) rotate(36.04)">T</text><text class="cls-1" transform="matrix(0.5, 0.86, -0.86, 0.5, 305.26, 112.54)">O</text><text class="cls-1" transform="matrix(0.2, 0.98, -0.98, 0.2, 336.35, 172.01)"> </text><text class="cls-1" transform="translate(343.05 191.98) rotate(94.37)">K</text><text class="cls-1" transform="translate(341.4 241.98) rotate(117.57)">N</text><text class="cls-1" transform="matrix(-0.81, 0.59, -0.59, -0.81, 316.03, 295.35)">O</text><text class="cls-1" transform="matrix(-1, 0.07, -0.07, -1, 264.27, 337.69)">W</text><text class="cls-1" transform="translate(180.75 338.65) rotate(-161.92)"> </text><text class="cls-1" transform="matrix(-0.78, -0.62, 0.62, -0.78, 159.48, 337.59)">M</text><text class="cls-1" transform="translate(103.57 290.68) rotate(-117.1)">E</text><text class="cls-1" transform="translate(84.62 251.61) rotate(-103.03)"> </text><text class="cls-1" transform="matrix(-0.06, -1, 1, -0.06, 79.46, 230.2)"> </text><text class="cls-1" transform="translate(76.59 209.11) rotate(-80.07)">*</text><line class="cls-2" x1="136.27" y1="247.34" x2="282.78" y2="171.08"/><line class="cls-2" x1="282.78" y1="171.08" x2="211.02" y2="148.45"/><line class="cls-2" x1="282.78" y1="171.08" x2="260.15" y2="242.84"/></g></g></svg>