<svg xmlns="http://www.w3.org/2000/svg" viewBox="0 0 423.96 424.01"><defs><style>.cls-1{font-size:92px;stroke-miterlimit:10;font-family:Poppins-Regular, Poppins;}.cls-1,.cls-2{fill:#fff;stroke:#fff;stroke-width:5px;}.cls-2{stroke-linecap:round;stroke-linejoin:round;}</style></defs><g id="Layer_2" data-name="Layer 2"><g id="Layer_1-2" data-name="Layer 1"><text class="cls-1" transform="matrix(0.82, -0.57, 0.57, 0.82, 107.34, 124.9)">G</text><text class="cls-1" transform="matrix(0.98, -0.2, 0.2, 0.98, 161.9, 88.21)">E</text><text class="cls-1" transform="matrix(0.99, 0.12, -0.12, 0.99, 203.43, 78.56)">T</text><text class="cls-1" transform="translate(248.79 85.22) rotate(21.53)"> </text><text class="cls-1" transform="translate(269.12 91.04) rotate(36.04)">T</text><text class="cls-1" transform="matrix(0.5, 0.86, -0.86, 0.5, 307.38, 114.67)">O</text><text class="cls-1" transform="matrix(0.2, 0.98, -0.98, 0.2, 338.48, 174.14)"> </text><text class="cls-1" transform="translate(345.17 194.11) rotate(94.37)">K</text><text class="cls-1" transform="translate(343.53 244.1) rotate(117.57)">N</text><text class="cls-1" transform="matrix(-0.81, 0.59, -0.59, -0.81, 318.16, 297.47)">O</text><text class="cls-1" transform="matrix(-1, 0.07, -0.07, -1, 266.4, 339.81)">W</text><text class="cls-1" transform="translate(182.87 340.78) rotate(-161.92)"> </text><text class="cls-1" transform="matrix(-0.78, -0.62, 0.62, -0.78, 161.61, 339.71)">M</text><text class="cls-1" transform="translate(105.7 292.81) rotate(-117.1)">E</text><text class="cls-1" transform="translate(86.75 253.73) rotate(-103.03)"> </text><text class="cls-1" transform="matrix(-0.06, -1, 1, -0.06, 81.58, 232.32)"> </text><text class="cls-1" transform="translate(78.71 211.23) rotate(-80.07)">*</text><line class="cls-2" x1="138.4" y1="249.46" x2="284.9" y2="173.2"/><line class="cls-2" x1="284.9" y1="173.2" x2="213.14" y2="150.57"/><line class="cls-2" x1="284.9" y1="173.2" x2="262.27" y2="244.97"/></g></g></svg>